<svg width="373" height="33" viewBox="0 0 373 33" fill="none" xmlns="http://www.w3.org/2000/svg">
<path d="M186.5 0.5C237.991 0.5 284.6 2.34682 318.331 5.33105C335.199 6.8234 348.833 8.59842 358.241 10.5664C362.95 11.5513 366.575 12.5798 369.013 13.6338C370.234 14.1616 371.128 14.6842 371.709 15.1904C372.293 15.6994 372.5 16.1363 372.5 16.5C372.5 16.8637 372.293 17.3006 371.709 17.8096C371.128 18.3158 370.234 18.8384 369.013 19.3662C366.575 20.4202 362.95 21.4487 358.241 22.4336C348.833 24.4016 335.199 26.1766 318.331 27.6689C284.6 30.6532 237.991 32.5 186.5 32.5C135.009 32.5 88.4 30.6532 54.6689 27.6689C37.8009 26.1766 24.1674 24.4016 14.7588 22.4336C10.0504 21.4487 6.42502 20.4202 3.9873 19.3662C2.76649 18.8384 1.87206 18.3158 1.29102 17.8096C0.706926 17.3006 0.5 16.8637 0.5 16.5C0.5 16.1363 0.706926 15.6994 1.29102 15.1904C1.87206 14.6842 2.76649 14.1616 3.9873 13.6338C6.42502 12.5798 10.0504 11.5513 14.7588 10.5664C24.1674 8.59842 37.8009 6.8234 54.6689 5.33105C88.4 2.34682 135.009 0.5 186.5 0.5Z" stroke="#040404"/>
</svg>
