<svg width="20" height="20" viewBox="0 0 20 20" fill="none" xmlns="http://www.w3.org/2000/svg">
<path fill-rule="evenodd" clip-rule="evenodd" d="M12.0505 3.40169V6.5171H10.8005V3.40169H12.0505Z" fill="#1E1E1E"/>
<path fill-rule="evenodd" clip-rule="evenodd" d="M12.0505 13.8151V16.6253H10.8005V13.8151H12.0505Z" fill="#1E1E1E"/>
<path fill-rule="evenodd" clip-rule="evenodd" d="M12.0505 7.683V12.6492H10.8005V7.683H12.0505Z" fill="#1E1E1E"/>
<path fill-rule="evenodd" clip-rule="evenodd" d="M1.66666 3.20842H18.3333V8.9681H17.7083C17.1171 8.9681 16.6555 9.43521 16.6555 10.0009C16.6555 10.5662 17.1167 11.0329 17.7083 11.0329H18.3333V16.7918H1.66666V11.0329H2.29166C2.88326 11.0329 3.34452 10.5662 3.34452 10.0009C3.34452 9.46742 2.91638 9.0332 2.29166 9.0332H1.66666V3.20842ZM2.91666 4.45842V7.86373C3.86559 8.11385 4.59452 8.92552 4.59452 10.0009C4.59452 11.0543 3.88239 11.9298 2.91666 12.1981V15.5418H17.0833V12.1981C16.1176 11.9298 15.4055 11.0543 15.4055 10.0009C15.4055 8.94777 16.1174 8.07148 17.0833 7.80293V4.45842H2.91666Z" fill="#1E1E1E"/>
</svg>
